<svg width="19" height="14" viewBox="0 0 19 14" fill="none" xmlns="http://www.w3.org/2000/svg">
<path d="M18.3145 5.24808C18.3557 4.05696 18.0952 2.87475 17.5573 1.81123C17.1923 1.37484 16.6858 1.08034 16.1259 0.979059C13.8105 0.768958 11.4854 0.682844 9.16069 0.721087C6.84448 0.681108 4.52777 0.764443 2.22041 0.970738C1.76424 1.05372 1.34208 1.26769 1.00545 1.58654C0.256498 2.27724 0.173282 3.45892 0.0900648 4.45752C-0.0306727 6.25298 -0.0306727 8.05451 0.0900648 9.84997C0.11414 10.412 0.197825 10.9699 0.339715 11.5143C0.440054 11.9346 0.643059 12.3235 0.930554 12.6461C1.26947 12.9818 1.70146 13.2079 2.17048 13.2951C3.96457 13.5166 5.77229 13.6084 7.57958 13.5698C10.4922 13.6114 13.0469 13.5698 16.0677 13.3368C16.5482 13.2549 16.9924 13.0285 17.3409 12.6877C17.5739 12.4546 17.7479 12.1693 17.8485 11.8555C18.1461 10.9423 18.2923 9.98654 18.2813 9.02612C18.3145 8.56011 18.3145 5.74738 18.3145 5.24808ZM7.27999 9.52542V4.3743L12.2064 6.96235C10.825 7.72794 9.00258 8.59339 7.27999 9.52542Z" fill="white"/>
</svg>
